<?xml version="1.0" encoding="utf-8" standalone="no"?>
<!DOCTYPE svg PUBLIC "-//W3C//DTD SVG 1.1//EN"
  "http://www.w3.org/Graphics/SVG/1.1/DTD/svg11.dtd">
<!-- Created with matplotlib (https://matplotlib.org/) -->
<svg height="288pt" version="1.1" viewBox="0 0 432 288" width="432pt" xmlns="http://www.w3.org/2000/svg" xmlns:xlink="http://www.w3.org/1999/xlink">
 <defs>
  <style type="text/css">
*{stroke-linecap:butt;stroke-linejoin:round;}
  </style>
 </defs>
 <g id="figure_1">
  <g id="patch_1">
   <path d="M 0 288 
L 432 288 
L 432 0 
L 0 0 
z
" style="fill:none;"/>
  </g>
  <g id="axes_1">
   <g id="patch_2">
    <path d="M 50.069121 257.413224 
L 419.04 257.413224 
L 419.04 14.459383 
L 50.069121 14.459383 
z
" style="fill:#ffffff;"/>
   </g>
   <g id="matplotlib.axis_1">
    <g id="xtick_1">
     <g id="line2d_1">
      <path clip-path="url(#p4cd8dec99e)" d="M 66.672643 257.413224 
L 66.672643 14.459383 
" style="fill:none;stroke:#b0b0b0;stroke-dasharray:2.96,1.28;stroke-dashoffset:0;stroke-width:0.8;"/>
     </g>
     <g id="line2d_2">
      <defs>
       <path d="M 0 0 
L 0 3.5 
" id="me0960cf77a" style="stroke:#000000;stroke-width:0.8;"/>
      </defs>
      <g>
       <use style="stroke:#000000;stroke-width:0.8;" x="66.672643" xlink:href="#me0960cf77a" y="257.413224"/>
      </g>
     </g>
     <g id="text_1">
      <!-- $-1.00$ -->
      <defs>
       <path d="M 65.90625 23 
C 67.59375 23 69.40625 23 69.40625 25 
C 69.40625 27 67.59375 27 65.90625 27 
L 11.796875 27 
C 10.09375 27 8.296875 27 8.296875 25 
C 8.296875 23 10.09375 23 11.796875 23 
z
" id="CMSY10-0"/>
       <path d="M 26.59375 63.796875 
C 26.59375 65.890625 26.5 66 25.09375 66 
C 21.203125 61.359375 15.296875 59.890625 9.703125 59.6875 
C 9.40625 59.6875 8.90625 59.6875 8.796875 59.5 
C 8.703125 59.296875 8.703125 59.09375 8.703125 57 
C 11.796875 57 17 57.59375 21 59.984375 
L 21 7.296875 
C 21 3.796875 20.796875 2.59375 12.203125 2.59375 
L 9.203125 2.59375 
L 9.203125 0 
C 14 0.09375 19 0.1875 23.796875 0.1875 
C 28.59375 0.1875 33.59375 0.09375 38.40625 0 
L 38.40625 2.59375 
L 35.40625 2.59375 
C 26.796875 2.59375 26.59375 3.6875 26.59375 7.296875 
z
" id="CMR17-49"/>
       <path d="M 18.40625 4.796875 
C 18.40625 7.6875 16 9.6875 13.59375 9.6875 
C 10.703125 9.6875 8.703125 7.296875 8.703125 4.890625 
C 8.703125 2 11.09375 0 13.5 0 
C 16.40625 0 18.40625 2.390625 18.40625 4.796875 
z
" id="CMMI12-58"/>
       <path d="M 42 31.84375 
C 42 37.96875 41.90625 48.421875 37.703125 56.453125 
C 34 63.484375 28.09375 66 22.90625 66 
C 18.09375 66 12 63.78125 8.203125 56.5625 
C 4.203125 49.015625 3.796875 39.671875 3.796875 31.84375 
C 3.796875 26.109375 3.90625 17.375 7 9.734375 
C 11.296875 -0.609375 19 -2 22.90625 -2 
C 27.5 -2 34.5 -0.109375 38.59375 9.4375 
C 41.59375 16.375 42 24.5 42 31.84375 
z
M 22.90625 -0.40625 
C 16.5 -0.40625 12.703125 5.125 11.296875 12.75 
C 10.203125 18.6875 10.203125 27.328125 10.203125 32.953125 
C 10.203125 40.6875 10.203125 47.109375 11.5 53.234375 
C 13.40625 61.78125 19 64.390625 22.90625 64.390625 
C 27 64.390625 32.296875 61.671875 34.203125 53.4375 
C 35.5 47.71875 35.59375 40.984375 35.59375 32.953125 
C 35.59375 26.421875 35.59375 18.375 34.40625 12.453125 
C 32.296875 1.5 26.40625 -0.40625 22.90625 -0.40625 
z
" id="CMR17-48"/>
      </defs>
      <g transform="translate(51.618082 272.715404)scale(0.12 -0.12)">
       <use transform="scale(0.996264)" xlink:href="#CMSY10-0"/>
       <use transform="translate(77.487468 0)scale(0.996264)" xlink:href="#CMR17-49"/>
       <use transform="translate(123.177945 0)scale(0.996264)" xlink:href="#CMMI12-58"/>
       <use transform="translate(150.275122 0)scale(0.996264)" xlink:href="#CMR17-48"/>
       <use transform="translate(195.965599 0)scale(0.996264)" xlink:href="#CMR17-48"/>
      </g>
     </g>
    </g>
    <g id="xtick_2">
     <g id="line2d_3">
      <path clip-path="url(#p4cd8dec99e)" d="M 108.643122 257.413224 
L 108.643122 14.459383 
" style="fill:none;stroke:#b0b0b0;stroke-dasharray:2.96,1.28;stroke-dashoffset:0;stroke-width:0.8;"/>
     </g>
     <g id="line2d_4">
      <g>
       <use style="stroke:#000000;stroke-width:0.8;" x="108.643122" xlink:href="#me0960cf77a" y="257.413224"/>
      </g>
     </g>
     <g id="text_2">
      <!-- $-0.75$ -->
      <defs>
       <path d="M 45.09375 61.796875 
L 45.09375 64 
L 21.59375 64 
C 9.90625 64 9.703125 65.09375 9.296875 67 
L 7.5 67 
L 4.59375 48.5 
L 6.40625 48.5 
C 6.703125 50.40625 7.40625 55.5 8.59375 57.390625 
C 9.203125 58.1875 16.59375 58.1875 18.296875 58.1875 
L 40.296875 58.1875 
L 29.203125 41.71875 
C 21.796875 30.640625 16.703125 15.671875 16.703125 2.59375 
C 16.703125 1.390625 16.703125 -2 20.296875 -2 
C 23.90625 -2 23.90625 1.390625 23.90625 2.6875 
L 23.90625 7.28125 
C 23.90625 23.65625 26.703125 34.4375 31.296875 41.3125 
z
" id="CMR17-55"/>
       <path d="M 11.40625 58.59375 
C 12.40625 58.1875 16.5 56.890625 20.703125 56.890625 
C 30 56.890625 35.09375 61.890625 38 64.6875 
C 38 65.484375 38 66 37.40625 66 
C 37.296875 66 37.09375 66 36.296875 65.59375 
C 32.796875 64.09375 28.703125 63 23.703125 63 
C 20.703125 63 16.203125 63.359375 11.296875 65.484375 
C 10.203125 66 10 66 9.90625 66 
C 9.40625 66 9.296875 65.890625 9.296875 63.90625 
L 9.296875 34.859375 
C 9.296875 33.015625 9.296875 32.5 10.296875 32.5 
C 10.796875 32.5 11 32.703125 11.5 33.421875 
C 14.703125 38.046875 19.09375 40 24.09375 40 
C 27.59375 40 35.09375 37.734375 35.09375 20.203125 
C 35.09375 16.984375 35.09375 11.1875 32.09375 6.59375 
C 29.59375 2.484375 25.703125 0.390625 21.40625 0.390625 
C 14.796875 0.390625 8.09375 4.984375 6.296875 12.6875 
C 6.703125 12.59375 7.5 12.390625 7.90625 12.390625 
C 9.203125 12.390625 11.703125 13.09375 11.703125 16.1875 
C 11.703125 18.890625 9.796875 20 7.90625 20 
C 5.59375 20 4.09375 18.59375 4.09375 15.796875 
C 4.09375 7.09375 11 -2 21.59375 -2 
C 31.90625 -2 41.703125 6.890625 41.703125 19.796875 
C 41.703125 32.09375 33.90625 41.59375 24.203125 41.59375 
C 19.09375 41.59375 14.796875 39.6875 11.40625 36 
z
" id="CMR17-53"/>
      </defs>
      <g transform="translate(93.588562 272.715404)scale(0.12 -0.12)">
       <use transform="scale(0.996264)" xlink:href="#CMSY10-0"/>
       <use transform="translate(77.487468 0)scale(0.996264)" xlink:href="#CMR17-48"/>
       <use transform="translate(123.177945 0)scale(0.996264)" xlink:href="#CMMI12-58"/>
       <use transform="translate(150.275122 0)scale(0.996264)" xlink:href="#CMR17-55"/>
       <use transform="translate(195.965599 0)scale(0.996264)" xlink:href="#CMR17-53"/>
      </g>
     </g>
    </g>
    <g id="xtick_3">
     <g id="line2d_5">
      <path clip-path="url(#p4cd8dec99e)" d="M 150.613602 257.413224 
L 150.613602 14.459383 
" style="fill:none;stroke:#b0b0b0;stroke-dasharray:2.96,1.28;stroke-dashoffset:0;stroke-width:0.8;"/>
     </g>
     <g id="line2d_6">
      <g>
       <use style="stroke:#000000;stroke-width:0.8;" x="150.613602" xlink:href="#me0960cf77a" y="257.413224"/>
      </g>
     </g>
     <g id="text_3">
      <!-- $-0.50$ -->
      <g transform="translate(135.559041 272.715404)scale(0.12 -0.12)">
       <use transform="scale(0.996264)" xlink:href="#CMSY10-0"/>
       <use transform="translate(77.487468 0)scale(0.996264)" xlink:href="#CMR17-48"/>
       <use transform="translate(123.177945 0)scale(0.996264)" xlink:href="#CMMI12-58"/>
       <use transform="translate(150.275122 0)scale(0.996264)" xlink:href="#CMR17-53"/>
       <use transform="translate(195.965599 0)scale(0.996264)" xlink:href="#CMR17-48"/>
      </g>
     </g>
    </g>
    <g id="xtick_4">
     <g id="line2d_7">
      <path clip-path="url(#p4cd8dec99e)" d="M 192.584081 257.413224 
L 192.584081 14.459383 
" style="fill:none;stroke:#b0b0b0;stroke-dasharray:2.96,1.28;stroke-dashoffset:0;stroke-width:0.8;"/>
     </g>
     <g id="line2d_8">
      <g>
       <use style="stroke:#000000;stroke-width:0.8;" x="192.584081" xlink:href="#me0960cf77a" y="257.413224"/>
      </g>
     </g>
     <g id="text_4">
      <!-- $-0.25$ -->
      <defs>
       <path d="M 41.703125 15.46875 
L 39.90625 15.46875 
C 38.90625 8.390625 38.09375 7.1875 37.703125 6.59375 
C 37.203125 5.796875 30 5.796875 28.59375 5.796875 
L 9.40625 5.796875 
C 13 9.6875 20 16.765625 28.5 24.9375 
C 34.59375 30.71875 41.703125 37.5 41.703125 47.390625 
C 41.703125 59.1875 32.296875 66 21.796875 66 
C 10.796875 66 4.09375 56.296875 4.09375 47.296875 
C 4.09375 43.390625 7 42.890625 8.203125 42.890625 
C 9.203125 42.890625 12.203125 43.484375 12.203125 46.984375 
C 12.203125 50.09375 9.59375 51 8.203125 51 
C 7.59375 51 7 50.890625 6.59375 50.6875 
C 8.5 59.1875 14.296875 63.390625 20.40625 63.390625 
C 29.09375 63.390625 34.796875 56.5 34.796875 47.390625 
C 34.796875 38.703125 29.703125 31.21875 24 24.734375 
L 4.09375 2.296875 
L 4.09375 0 
L 39.296875 0 
z
" id="CMR17-50"/>
      </defs>
      <g transform="translate(177.529521 272.715404)scale(0.12 -0.12)">
       <use transform="scale(0.996264)" xlink:href="#CMSY10-0"/>
       <use transform="translate(77.487468 0)scale(0.996264)" xlink:href="#CMR17-48"/>
       <use transform="translate(123.177945 0)scale(0.996264)" xlink:href="#CMMI12-58"/>
       <use transform="translate(150.275122 0)scale(0.996264)" xlink:href="#CMR17-50"/>
       <use transform="translate(195.965599 0)scale(0.996264)" xlink:href="#CMR17-53"/>
      </g>
     </g>
    </g>
    <g id="xtick_5">
     <g id="line2d_9">
      <path clip-path="url(#p4cd8dec99e)" d="M 234.554561 257.413224 
L 234.554561 14.459383 
" style="fill:none;stroke:#b0b0b0;stroke-dasharray:2.96,1.28;stroke-dashoffset:0;stroke-width:0.8;"/>
     </g>
     <g id="line2d_10">
      <g>
       <use style="stroke:#000000;stroke-width:0.8;" x="234.554561" xlink:href="#me0960cf77a" y="257.413224"/>
      </g>
     </g>
     <g id="text_5">
      <!-- $0.00$ -->
      <g transform="translate(224.149245 272.715404)scale(0.12 -0.12)">
       <use transform="scale(0.996264)" xlink:href="#CMR17-48"/>
       <use transform="translate(45.690477 0)scale(0.996264)" xlink:href="#CMMI12-58"/>
       <use transform="translate(72.787654 0)scale(0.996264)" xlink:href="#CMR17-48"/>
       <use transform="translate(118.478131 0)scale(0.996264)" xlink:href="#CMR17-48"/>
      </g>
     </g>
    </g>
    <g id="xtick_6">
     <g id="line2d_11">
      <path clip-path="url(#p4cd8dec99e)" d="M 276.52504 257.413224 
L 276.52504 14.459383 
" style="fill:none;stroke:#b0b0b0;stroke-dasharray:2.96,1.28;stroke-dashoffset:0;stroke-width:0.8;"/>
     </g>
     <g id="line2d_12">
      <g>
       <use style="stroke:#000000;stroke-width:0.8;" x="276.52504" xlink:href="#me0960cf77a" y="257.413224"/>
      </g>
     </g>
     <g id="text_6">
      <!-- $0.25$ -->
      <g transform="translate(266.119724 272.715404)scale(0.12 -0.12)">
       <use transform="scale(0.996264)" xlink:href="#CMR17-48"/>
       <use transform="translate(45.690477 0)scale(0.996264)" xlink:href="#CMMI12-58"/>
       <use transform="translate(72.787654 0)scale(0.996264)" xlink:href="#CMR17-50"/>
       <use transform="translate(118.478131 0)scale(0.996264)" xlink:href="#CMR17-53"/>
      </g>
     </g>
    </g>
    <g id="xtick_7">
     <g id="line2d_13">
      <path clip-path="url(#p4cd8dec99e)" d="M 318.49552 257.413224 
L 318.49552 14.459383 
" style="fill:none;stroke:#b0b0b0;stroke-dasharray:2.96,1.28;stroke-dashoffset:0;stroke-width:0.8;"/>
     </g>
     <g id="line2d_14">
      <g>
       <use style="stroke:#000000;stroke-width:0.8;" x="318.49552" xlink:href="#me0960cf77a" y="257.413224"/>
      </g>
     </g>
     <g id="text_7">
      <!-- $0.50$ -->
      <g transform="translate(308.090204 272.715404)scale(0.12 -0.12)">
       <use transform="scale(0.996264)" xlink:href="#CMR17-48"/>
       <use transform="translate(45.690477 0)scale(0.996264)" xlink:href="#CMMI12-58"/>
       <use transform="translate(72.787654 0)scale(0.996264)" xlink:href="#CMR17-53"/>
       <use transform="translate(118.478131 0)scale(0.996264)" xlink:href="#CMR17-48"/>
      </g>
     </g>
    </g>
    <g id="xtick_8">
     <g id="line2d_15">
      <path clip-path="url(#p4cd8dec99e)" d="M 360.465999 257.413224 
L 360.465999 14.459383 
" style="fill:none;stroke:#b0b0b0;stroke-dasharray:2.96,1.28;stroke-dashoffset:0;stroke-width:0.8;"/>
     </g>
     <g id="line2d_16">
      <g>
       <use style="stroke:#000000;stroke-width:0.8;" x="360.465999" xlink:href="#me0960cf77a" y="257.413224"/>
      </g>
     </g>
     <g id="text_8">
      <!-- $0.75$ -->
      <g transform="translate(350.060683 272.715404)scale(0.12 -0.12)">
       <use transform="scale(0.996264)" xlink:href="#CMR17-48"/>
       <use transform="translate(45.690477 0)scale(0.996264)" xlink:href="#CMMI12-58"/>
       <use transform="translate(72.787654 0)scale(0.996264)" xlink:href="#CMR17-55"/>
       <use transform="translate(118.478131 0)scale(0.996264)" xlink:href="#CMR17-53"/>
      </g>
     </g>
    </g>
    <g id="xtick_9">
     <g id="line2d_17">
      <path clip-path="url(#p4cd8dec99e)" d="M 402.436478 257.413224 
L 402.436478 14.459383 
" style="fill:none;stroke:#b0b0b0;stroke-dasharray:2.96,1.28;stroke-dashoffset:0;stroke-width:0.8;"/>
     </g>
     <g id="line2d_18">
      <g>
       <use style="stroke:#000000;stroke-width:0.8;" x="402.436478" xlink:href="#me0960cf77a" y="257.413224"/>
      </g>
     </g>
     <g id="text_9">
      <!-- $1.00$ -->
      <g transform="translate(392.031162 272.715404)scale(0.12 -0.12)">
       <use transform="scale(0.996264)" xlink:href="#CMR17-49"/>
       <use transform="translate(45.690477 0)scale(0.996264)" xlink:href="#CMMI12-58"/>
       <use transform="translate(72.787654 0)scale(0.996264)" xlink:href="#CMR17-48"/>
       <use transform="translate(118.478131 0)scale(0.996264)" xlink:href="#CMR17-48"/>
      </g>
     </g>
    </g>
   </g>
   <g id="matplotlib.axis_2">
    <g id="ytick_1">
     <g id="line2d_19">
      <path clip-path="url(#p4cd8dec99e)" d="M 50.069121 254.450373 
L 419.04 254.450373 
" style="fill:none;stroke:#b0b0b0;stroke-dasharray:2.96,1.28;stroke-dashoffset:0;stroke-width:0.8;"/>
     </g>
     <g id="line2d_20">
      <defs>
       <path d="M 0 0 
L -3.5 0 
" id="ma3d4b8ffef" style="stroke:#000000;stroke-width:0.8;"/>
      </defs>
      <g>
       <use style="stroke:#000000;stroke-width:0.8;" x="50.069121" xlink:href="#ma3d4b8ffef" y="254.450373"/>
      </g>
     </g>
     <g id="text_10">
      <!-- $-1.00$ -->
      <g transform="translate(12.96 258.601463)scale(0.12 -0.12)">
       <use transform="scale(0.996264)" xlink:href="#CMSY10-0"/>
       <use transform="translate(77.487468 0)scale(0.996264)" xlink:href="#CMR17-49"/>
       <use transform="translate(123.177945 0)scale(0.996264)" xlink:href="#CMMI12-58"/>
       <use transform="translate(150.275122 0)scale(0.996264)" xlink:href="#CMR17-48"/>
       <use transform="translate(195.965599 0)scale(0.996264)" xlink:href="#CMR17-48"/>
      </g>
     </g>
    </g>
    <g id="ytick_2">
     <g id="line2d_21">
      <path clip-path="url(#p4cd8dec99e)" d="M 50.069121 224.821855 
L 419.04 224.821855 
" style="fill:none;stroke:#b0b0b0;stroke-dasharray:2.96,1.28;stroke-dashoffset:0;stroke-width:0.8;"/>
     </g>
     <g id="line2d_22">
      <g>
       <use style="stroke:#000000;stroke-width:0.8;" x="50.069121" xlink:href="#ma3d4b8ffef" y="224.821855"/>
      </g>
     </g>
     <g id="text_11">
      <!-- $-0.75$ -->
      <g transform="translate(12.96 228.972945)scale(0.12 -0.12)">
       <use transform="scale(0.996264)" xlink:href="#CMSY10-0"/>
       <use transform="translate(77.487468 0)scale(0.996264)" xlink:href="#CMR17-48"/>
       <use transform="translate(123.177945 0)scale(0.996264)" xlink:href="#CMMI12-58"/>
       <use transform="translate(150.275122 0)scale(0.996264)" xlink:href="#CMR17-55"/>
       <use transform="translate(195.965599 0)scale(0.996264)" xlink:href="#CMR17-53"/>
      </g>
     </g>
    </g>
    <g id="ytick_3">
     <g id="line2d_23">
      <path clip-path="url(#p4cd8dec99e)" d="M 50.069121 195.193338 
L 419.04 195.193338 
" style="fill:none;stroke:#b0b0b0;stroke-dasharray:2.96,1.28;stroke-dashoffset:0;stroke-width:0.8;"/>
     </g>
     <g id="line2d_24">
      <g>
       <use style="stroke:#000000;stroke-width:0.8;" x="50.069121" xlink:href="#ma3d4b8ffef" y="195.193338"/>
      </g>
     </g>
     <g id="text_12">
      <!-- $-0.50$ -->
      <g transform="translate(12.96 199.344428)scale(0.12 -0.12)">
       <use transform="scale(0.996264)" xlink:href="#CMSY10-0"/>
       <use transform="translate(77.487468 0)scale(0.996264)" xlink:href="#CMR17-48"/>
       <use transform="translate(123.177945 0)scale(0.996264)" xlink:href="#CMMI12-58"/>
       <use transform="translate(150.275122 0)scale(0.996264)" xlink:href="#CMR17-53"/>
       <use transform="translate(195.965599 0)scale(0.996264)" xlink:href="#CMR17-48"/>
      </g>
     </g>
    </g>
    <g id="ytick_4">
     <g id="line2d_25">
      <path clip-path="url(#p4cd8dec99e)" d="M 50.069121 165.564821 
L 419.04 165.564821 
" style="fill:none;stroke:#b0b0b0;stroke-dasharray:2.96,1.28;stroke-dashoffset:0;stroke-width:0.8;"/>
     </g>
     <g id="line2d_26">
      <g>
       <use style="stroke:#000000;stroke-width:0.8;" x="50.069121" xlink:href="#ma3d4b8ffef" y="165.564821"/>
      </g>
     </g>
     <g id="text_13">
      <!-- $-0.25$ -->
      <g transform="translate(12.96 169.715911)scale(0.12 -0.12)">
       <use transform="scale(0.996264)" xlink:href="#CMSY10-0"/>
       <use transform="translate(77.487468 0)scale(0.996264)" xlink:href="#CMR17-48"/>
       <use transform="translate(123.177945 0)scale(0.996264)" xlink:href="#CMMI12-58"/>
       <use transform="translate(150.275122 0)scale(0.996264)" xlink:href="#CMR17-50"/>
       <use transform="translate(195.965599 0)scale(0.996264)" xlink:href="#CMR17-53"/>
      </g>
     </g>
    </g>
    <g id="ytick_5">
     <g id="line2d_27">
      <path clip-path="url(#p4cd8dec99e)" d="M 50.069121 135.936304 
L 419.04 135.936304 
" style="fill:none;stroke:#b0b0b0;stroke-dasharray:2.96,1.28;stroke-dashoffset:0;stroke-width:0.8;"/>
     </g>
     <g id="line2d_28">
      <g>
       <use style="stroke:#000000;stroke-width:0.8;" x="50.069121" xlink:href="#ma3d4b8ffef" y="135.936304"/>
      </g>
     </g>
     <g id="text_14">
      <!-- $0.00$ -->
      <g transform="translate(22.258489 140.087393)scale(0.12 -0.12)">
       <use transform="scale(0.996264)" xlink:href="#CMR17-48"/>
       <use transform="translate(45.690477 0)scale(0.996264)" xlink:href="#CMMI12-58"/>
       <use transform="translate(72.787654 0)scale(0.996264)" xlink:href="#CMR17-48"/>
       <use transform="translate(118.478131 0)scale(0.996264)" xlink:href="#CMR17-48"/>
      </g>
     </g>
    </g>
    <g id="ytick_6">
     <g id="line2d_29">
      <path clip-path="url(#p4cd8dec99e)" d="M 50.069121 106.307786 
L 419.04 106.307786 
" style="fill:none;stroke:#b0b0b0;stroke-dasharray:2.96,1.28;stroke-dashoffset:0;stroke-width:0.8;"/>
     </g>
     <g id="line2d_30">
      <g>
       <use style="stroke:#000000;stroke-width:0.8;" x="50.069121" xlink:href="#ma3d4b8ffef" y="106.307786"/>
      </g>
     </g>
     <g id="text_15">
      <!-- $0.25$ -->
      <g transform="translate(22.258489 110.458876)scale(0.12 -0.12)">
       <use transform="scale(0.996264)" xlink:href="#CMR17-48"/>
       <use transform="translate(45.690477 0)scale(0.996264)" xlink:href="#CMMI12-58"/>
       <use transform="translate(72.787654 0)scale(0.996264)" xlink:href="#CMR17-50"/>
       <use transform="translate(118.478131 0)scale(0.996264)" xlink:href="#CMR17-53"/>
      </g>
     </g>
    </g>
    <g id="ytick_7">
     <g id="line2d_31">
      <path clip-path="url(#p4cd8dec99e)" d="M 50.069121 76.679269 
L 419.04 76.679269 
" style="fill:none;stroke:#b0b0b0;stroke-dasharray:2.96,1.28;stroke-dashoffset:0;stroke-width:0.8;"/>
     </g>
     <g id="line2d_32">
      <g>
       <use style="stroke:#000000;stroke-width:0.8;" x="50.069121" xlink:href="#ma3d4b8ffef" y="76.679269"/>
      </g>
     </g>
     <g id="text_16">
      <!-- $0.50$ -->
      <g transform="translate(22.258489 80.830359)scale(0.12 -0.12)">
       <use transform="scale(0.996264)" xlink:href="#CMR17-48"/>
       <use transform="translate(45.690477 0)scale(0.996264)" xlink:href="#CMMI12-58"/>
       <use transform="translate(72.787654 0)scale(0.996264)" xlink:href="#CMR17-53"/>
       <use transform="translate(118.478131 0)scale(0.996264)" xlink:href="#CMR17-48"/>
      </g>
     </g>
    </g>
    <g id="ytick_8">
     <g id="line2d_33">
      <path clip-path="url(#p4cd8dec99e)" d="M 50.069121 47.050752 
L 419.04 47.050752 
" style="fill:none;stroke:#b0b0b0;stroke-dasharray:2.96,1.28;stroke-dashoffset:0;stroke-width:0.8;"/>
     </g>
     <g id="line2d_34">
      <g>
       <use style="stroke:#000000;stroke-width:0.8;" x="50.069121" xlink:href="#ma3d4b8ffef" y="47.050752"/>
      </g>
     </g>
     <g id="text_17">
      <!-- $0.75$ -->
      <g transform="translate(22.258489 51.201842)scale(0.12 -0.12)">
       <use transform="scale(0.996264)" xlink:href="#CMR17-48"/>
       <use transform="translate(45.690477 0)scale(0.996264)" xlink:href="#CMMI12-58"/>
       <use transform="translate(72.787654 0)scale(0.996264)" xlink:href="#CMR17-55"/>
       <use transform="translate(118.478131 0)scale(0.996264)" xlink:href="#CMR17-53"/>
      </g>
     </g>
    </g>
    <g id="ytick_9">
     <g id="line2d_35">
      <path clip-path="url(#p4cd8dec99e)" d="M 50.069121 17.422234 
L 419.04 17.422234 
" style="fill:none;stroke:#b0b0b0;stroke-dasharray:2.96,1.28;stroke-dashoffset:0;stroke-width:0.8;"/>
     </g>
     <g id="line2d_36">
      <g>
       <use style="stroke:#000000;stroke-width:0.8;" x="50.069121" xlink:href="#ma3d4b8ffef" y="17.422234"/>
      </g>
     </g>
     <g id="text_18">
      <!-- $1.00$ -->
      <g transform="translate(22.258489 21.573324)scale(0.12 -0.12)">
       <use transform="scale(0.996264)" xlink:href="#CMR17-49"/>
       <use transform="translate(45.690477 0)scale(0.996264)" xlink:href="#CMMI12-58"/>
       <use transform="translate(72.787654 0)scale(0.996264)" xlink:href="#CMR17-48"/>
       <use transform="translate(118.478131 0)scale(0.996264)" xlink:href="#CMR17-48"/>
      </g>
     </g>
    </g>
   </g>
   <g id="line2d_37">
    <path clip-path="url(#p4cd8dec99e)" d="M 66.840525 17.422234 
L 402.268596 17.422234 
L 402.268596 17.422234 
" style="fill:none;stroke:#1f77b4;stroke-linecap:square;stroke-width:1.5;"/>
   </g>
   <g id="line2d_38">
    <path clip-path="url(#p4cd8dec99e)" d="M 66.840525 254.331859 
L 402.268596 17.540748 
L 402.268596 17.540748 
" style="fill:none;stroke:#ff7f0e;stroke-linecap:square;stroke-width:1.5;"/>
   </g>
   <g id="line2d_39">
    <path clip-path="url(#p4cd8dec99e)" d="M 66.840525 17.777599 
L 73.398259 31.380508 
L 79.628105 43.800791 
L 85.857952 55.731478 
L 92.087799 67.172569 
L 97.989759 77.559876 
L 103.89172 87.507766 
L 109.79368 97.01624 
L 115.367753 105.592989 
L 120.941827 113.777791 
L 126.5159 121.570644 
L 132.089974 128.971549 
L 137.336161 135.579063 
L 142.582348 141.839385 
L 147.828534 147.752514 
L 153.074721 153.31845 
L 157.993021 158.221194 
L 162.911322 162.818787 
L 167.829622 167.111231 
L 172.747922 171.098524 
L 177.338335 174.544685 
L 181.928749 177.725026 
L 186.519162 180.639548 
L 191.109576 183.28825 
L 195.699989 185.671132 
L 200.290403 187.788195 
L 204.55293 189.516022 
L 208.815457 191.014648 
L 213.077983 192.284072 
L 217.34051 193.324294 
L 221.603037 194.135315 
L 225.865564 194.717135 
L 230.128091 195.069752 
L 234.390617 195.193169 
L 238.653144 195.087383 
L 242.915671 194.752396 
L 247.178198 194.188208 
L 251.440725 193.394818 
L 255.703251 192.372226 
L 259.965778 191.120433 
L 264.228305 189.639438 
L 268.490832 187.929242 
L 272.753359 185.989844 
L 277.343772 183.644936 
L 281.934186 181.034208 
L 286.524599 178.157661 
L 291.115013 175.015294 
L 295.705426 171.607107 
L 300.29584 167.933101 
L 305.21414 163.701688 
L 310.13244 159.165125 
L 315.05074 154.323411 
L 319.96904 149.176548 
L 325.215227 143.350217 
L 330.461414 137.176693 
L 335.707601 130.655977 
L 340.953788 123.788067 
L 346.527861 116.110493 
L 352.101935 108.040971 
L 357.676008 99.5795 
L 363.250082 90.726081 
L 369.152042 80.924663 
L 375.054002 70.683829 
L 380.955962 60.003579 
L 387.185809 48.253269 
L 393.415656 36.013363 
L 399.645503 23.283861 
L 402.268596 17.777599 
L 402.268596 17.777599 
" style="fill:none;stroke:#2ca02c;stroke-linecap:square;stroke-width:1.5;"/>
   </g>
   <g id="line2d_40">
    <path clip-path="url(#p4cd8dec99e)" d="M 66.840525 253.740177 
L 70.775165 237.600108 
L 74.709805 222.412656 
L 78.644445 208.154937 
L 82.251199 195.882559 
L 85.857952 184.354556 
L 89.464706 173.5533 
L 93.071459 163.461163 
L 96.678213 154.060518 
L 99.957079 146.099699 
L 103.235946 138.682547 
L 106.514813 131.79582 
L 109.79368 125.426273 
L 113.072547 119.560662 
L 116.351413 114.185742 
L 119.302393 109.75691 
L 122.253374 105.705156 
L 125.204354 102.020825 
L 128.155334 98.694262 
L 131.106314 95.715812 
L 134.057294 93.075821 
L 137.008274 90.764633 
L 139.631367 88.97847 
L 142.254461 87.437694 
L 144.877554 86.135522 
L 147.500648 85.065174 
L 150.123741 84.219869 
L 152.746835 83.592825 
L 155.369928 83.177263 
L 157.993021 82.966401 
L 160.944002 82.965418 
L 163.894982 83.205271 
L 166.845962 83.676306 
L 169.796942 84.368868 
L 172.747922 85.273301 
L 176.026789 86.514976 
L 179.305656 87.993056 
L 182.912409 89.876187 
L 186.519162 92.011716 
L 190.453803 94.608531 
L 194.716329 97.710494 
L 198.978856 101.084403 
L 203.897156 105.277288 
L 209.143343 110.055706 
L 215.045303 115.742807 
L 221.930924 122.695029 
L 231.439637 132.639786 
L 248.817631 150.857856 
L 256.031138 158.057684 
L 261.933098 163.642514 
L 267.179285 168.308411 
L 272.097585 172.377331 
L 276.360112 175.629342 
L 280.622639 178.595978 
L 284.557279 181.055954 
L 288.164033 183.055997 
L 291.770786 184.794026 
L 295.049653 186.131852 
L 298.32852 187.225326 
L 301.2795 187.989584 
L 304.23048 188.535534 
L 307.18146 188.853521 
L 310.13244 188.93389 
L 312.755533 188.798042 
L 315.378627 188.460036 
L 318.00172 187.913093 
L 320.624814 187.150431 
L 323.247907 186.165268 
L 325.871 184.950825 
L 328.494094 183.50032 
L 331.117187 181.806972 
L 333.740281 179.864 
L 336.363374 177.664624 
L 338.986468 175.202061 
L 341.937448 172.108646 
L 344.888428 168.6639 
L 347.839408 164.858168 
L 350.790388 160.681794 
L 353.741368 156.125123 
L 356.692348 151.178502 
L 359.643328 145.832275 
L 362.922195 139.411606 
L 366.201062 132.472432 
L 369.479929 125.00151 
L 372.758795 116.985595 
L 376.037662 108.411444 
L 379.644416 98.319307 
L 383.251169 87.518051 
L 386.857923 75.990048 
L 390.464676 63.71767 
L 394.071429 50.683289 
L 398.00607 35.574189 
L 401.94071 19.514379 
L 402.268596 18.13243 
L 402.268596 18.13243 
" style="fill:none;stroke:#d62728;stroke-linecap:square;stroke-width:1.5;"/>
   </g>
   <g id="line2d_41">
    <path clip-path="url(#p4cd8dec99e)" d="M 66.840525 18.604711 
L 69.791505 38.532358 
L 72.742485 56.882862 
L 75.693465 73.721957 
L 78.316559 87.473413 
L 80.939652 100.126231 
L 83.562746 111.724215 
L 86.185839 122.310427 
L 88.808932 131.927187 
L 91.432026 140.616075 
L 93.727233 147.489828 
L 96.022439 153.711347 
L 98.317646 159.307089 
L 100.612853 164.303076 
L 102.90806 168.724897 
L 104.87538 172.077118 
L 106.8427 175.041574 
L 108.81002 177.633616 
L 110.77734 179.868361 
L 112.74466 181.76069 
L 114.71198 183.325249 
L 116.6793 184.576452 
L 118.64662 185.528475 
L 120.61394 186.195261 
L 122.58126 186.590519 
L 124.54858 186.727722 
L 126.5159 186.62011 
L 128.48322 186.280685 
L 130.450541 185.722218 
L 132.745747 184.810538 
L 135.040954 183.63727 
L 137.336161 182.221481 
L 139.959254 180.330352 
L 142.582348 178.173899 
L 145.533328 175.463553 
L 148.812194 172.141611 
L 152.418948 168.165669 
L 156.681475 163.113891 
L 161.599775 156.929927 
L 168.485395 147.888279 
L 182.256636 129.739006 
L 187.830709 122.807357 
L 192.421123 117.429352 
L 196.683649 112.766331 
L 200.61829 108.788025 
L 204.225043 105.446424 
L 207.831796 102.42113 
L 211.110663 99.963037 
L 214.38953 97.797566 
L 217.34051 96.108823 
L 220.29149 94.674403 
L 223.24247 93.500644 
L 225.865564 92.680316 
L 228.488657 92.072853 
L 231.111751 91.68034 
L 233.734844 91.504123 
L 236.357937 91.544803 
L 238.981031 91.802241 
L 241.604124 92.275558 
L 244.227218 92.963129 
L 246.850311 93.862593 
L 249.801291 95.123869 
L 252.752271 96.643826 
L 255.703251 98.41573 
L 258.654232 100.431663 
L 261.933098 102.946676 
L 265.211965 105.737471 
L 268.818719 109.106696 
L 272.753359 113.11253 
L 277.015885 117.801951 
L 281.606299 123.203959 
L 286.852486 129.739006 
L 293.410219 138.283577 
L 310.13244 160.267422 
L 315.05074 166.263121 
L 318.98538 170.731742 
L 322.592134 174.499226 
L 325.871 177.596435 
L 328.821981 180.074758 
L 331.445074 182.00052 
L 334.068167 183.63727 
L 336.363374 184.810538 
L 338.658581 185.722218 
L 340.625901 186.280685 
L 342.593221 186.62011 
L 344.560541 186.727722 
L 346.527861 186.590519 
L 348.495181 186.195261 
L 350.462501 185.528475 
L 352.101935 184.755519 
L 354.069255 183.555158 
L 356.036575 182.043819 
L 358.003895 180.20713 
L 359.971215 178.030481 
L 361.938535 175.499032 
L 363.905855 172.597705 
L 365.873175 169.311188 
L 367.840495 165.623934 
L 370.135702 160.794586 
L 372.430909 155.372839 
L 374.726115 149.332794 
L 377.021322 142.648119 
L 379.316529 135.292046 
L 381.611736 127.237373 
L 384.234829 117.14113 
L 386.857923 106.054368 
L 389.481016 93.934396 
L 392.104109 80.737782 
L 394.727203 66.420349 
L 397.350296 50.937183 
L 400.301276 32.068327 
L 402.268596 18.604711 
L 402.268596 18.604711 
" style="fill:none;stroke:#9467bd;stroke-linecap:square;stroke-width:1.5;"/>
   </g>
   <g id="line2d_42">
    <path clip-path="url(#p4cd8dec99e)" d="M 66.840525 252.678875 
L 69.135732 229.681916 
L 71.430938 208.876941 
L 73.726145 190.142838 
L 76.021352 173.362294 
L 77.988672 160.447661 
L 79.955992 148.81545 
L 81.923312 138.398278 
L 83.890632 129.130706 
L 85.857952 120.949218 
L 87.825272 113.79219 
L 89.464706 108.56741 
L 91.104139 103.978936 
L 92.743573 99.994049 
L 94.383006 96.580902 
L 96.022439 93.708507 
L 97.661873 91.346728 
L 98.973419 89.805231 
L 100.284966 88.557146 
L 101.596513 87.588192 
L 102.90806 86.884423 
L 104.219606 86.432224 
L 105.531153 86.218305 
L 106.8427 86.229702 
L 108.154246 86.45377 
L 109.465793 86.878184 
L 111.105227 87.672165 
L 112.74466 88.737657 
L 114.384093 90.05263 
L 116.351413 91.929984 
L 118.318733 94.100558 
L 120.61394 96.958317 
L 123.237034 100.590809 
L 126.188014 105.058397 
L 129.794767 110.931696 
L 134.713067 119.399179 
L 146.844874 140.479609 
L 151.107401 147.356815 
L 154.714155 152.779289 
L 157.993021 157.330232 
L 160.944002 161.079689 
L 163.894982 164.472774 
L 166.518075 167.171479 
L 169.141168 169.558134 
L 171.764262 171.622718 
L 174.059469 173.159134 
L 176.354675 174.439845 
L 178.649882 175.462863 
L 180.945089 176.227555 
L 183.240296 176.734589 
L 185.535502 176.985886 
L 187.830709 176.984561 
L 190.125916 176.734871 
L 192.421123 176.242162 
L 194.716329 175.512818 
L 197.011536 174.554202 
L 199.306743 173.374607 
L 201.929836 171.767709 
L 204.55293 169.899179 
L 207.50391 167.504678 
L 210.45489 164.824686 
L 213.733757 161.544622 
L 217.34051 157.614018 
L 221.27515 153.003027 
L 226.19345 146.87552 
L 233.079071 137.888605 
L 243.899331 123.745611 
L 248.817631 117.68904 
L 253.080158 112.793382 
L 256.686911 108.980063 
L 259.965778 105.82324 
L 262.916758 103.266933 
L 265.867738 101.007448 
L 268.490832 99.267776 
L 271.113925 97.797402 
L 273.409132 96.743013 
L 275.704339 95.914452 
L 277.999546 95.319489 
L 280.294752 94.964932 
L 282.589959 94.856578 
L 284.885166 94.999159 
L 287.180373 95.396286 
L 289.475579 96.050397 
L 291.770786 96.962704 
L 294.065993 98.133138 
L 296.361199 99.5603 
L 298.656406 101.241399 
L 301.2795 103.468106 
L 303.902593 106.012205 
L 306.525687 108.862336 
L 309.476667 112.416846 
L 312.427647 116.316287 
L 315.706513 121.017851 
L 319.313267 126.582977 
L 323.575794 133.591999 
L 329.149867 143.231289 
L 339.642241 161.489678 
L 343.576881 167.837151 
L 346.527861 172.222828 
L 349.150955 175.763767 
L 351.446161 178.52603 
L 353.413481 180.602705 
L 355.380801 182.374524 
L 357.020235 183.592301 
L 358.659668 184.551875 
L 360.299102 185.230915 
L 361.610648 185.556677 
L 362.922195 185.675971 
L 364.233742 185.57631 
L 365.545289 185.244892 
L 366.856835 184.668589 
L 368.168382 183.83395 
L 369.479929 182.727194 
L 370.791475 181.33421 
L 372.103022 179.640548 
L 373.414569 177.631422 
L 375.054002 174.653315 
L 376.693436 171.128326 
L 378.332869 167.025298 
L 379.972302 162.312208 
L 381.611736 156.956164 
L 383.251169 150.923389 
L 385.218489 142.741901 
L 387.185809 133.474329 
L 389.153129 123.057157 
L 391.120449 111.424946 
L 393.087769 98.510313 
L 395.05509 84.243907 
L 397.350296 65.795978 
L 399.645503 45.294167 
L 401.94071 22.617909 
L 402.268596 19.193732 
L 402.268596 19.193732 
" style="fill:none;stroke:#8c564b;stroke-linecap:square;stroke-width:1.5;"/>
   </g>
   <g id="patch_3">
    <path d="M 50.069121 257.413224 
L 50.069121 14.459383 
" style="fill:none;stroke:#000000;stroke-linecap:square;stroke-linejoin:miter;stroke-width:0.8;"/>
   </g>
   <g id="patch_4">
    <path d="M 419.04 257.413224 
L 419.04 14.459383 
" style="fill:none;stroke:#000000;stroke-linecap:square;stroke-linejoin:miter;stroke-width:0.8;"/>
   </g>
   <g id="patch_5">
    <path d="M 50.069121 257.413224 
L 419.04 257.413224 
" style="fill:none;stroke:#000000;stroke-linecap:square;stroke-linejoin:miter;stroke-width:0.8;"/>
   </g>
   <g id="patch_6">
    <path d="M 50.069121 14.459383 
L 419.04 14.459383 
" style="fill:none;stroke:#000000;stroke-linecap:square;stroke-linejoin:miter;stroke-width:0.8;"/>
   </g>
   <g id="legend_1">
    <g id="patch_7">
     <path d="M 167.985385 251.413224 
L 301.123737 251.413224 
Q 303.523737 251.413224 303.523737 249.013224 
L 303.523737 216.764033 
Q 303.523737 214.364033 301.123737 214.364033 
L 167.985385 214.364033 
Q 165.585385 214.364033 165.585385 216.764033 
L 165.585385 249.013224 
Q 165.585385 251.413224 167.985385 251.413224 
z
" style="fill:#ffffff;stroke:#cccccc;stroke-linejoin:miter;"/>
    </g>
    <g id="line2d_43">
     <path d="M 170.385385 223.364033 
L 179.385385 223.364033 
" style="fill:none;stroke:#1f77b4;stroke-linecap:square;stroke-width:1.5;"/>
    </g>
    <g id="line2d_44"/>
    <g id="text_19">
     <!-- $P_0$ -->
     <defs>
      <path d="M 29.59375 31.59375 
L 46.40625 31.59375 
C 60.203125 31.59375 74 41.765625 74 53.125 
C 74 60.90625 67.40625 68 54.796875 68 
L 23.90625 68 
C 22 68 21.09375 68 21.09375 66.09375 
C 21.09375 65.09375 22 65.09375 23.5 65.09375 
C 29.59375 65.09375 29.59375 64.296875 29.59375 63.203125 
C 29.59375 63 29.59375 62.40625 29.203125 60.90625 
L 15.703125 7.359375 
C 14.796875 3.890625 14.59375 2.890625 7.59375 2.890625 
C 5.703125 2.890625 4.703125 2.890625 4.703125 1.09375 
C 4.703125 0 5.59375 0 6.203125 0 
C 8.09375 0 10.09375 0.1875 12 0.1875 
L 23.703125 0.1875 
C 25.59375 0.1875 27.703125 0 29.59375 0 
C 30.40625 0 31.5 0 31.5 1.890625 
C 31.5 2.890625 30.59375 2.890625 29.09375 2.890625 
C 23.09375 2.890625 23 3.59375 23 4.578125 
C 23 5.078125 23.09375 5.765625 23.203125 6.265625 
z
M 36.796875 61.203125 
C 37.703125 64.890625 38.09375 65.09375 42 65.09375 
L 51.90625 65.09375 
C 59.40625 65.09375 65.59375 62.703125 65.59375 55.21875 
C 65.59375 52.640625 64.296875 44.15625 59.703125 39.578125 
C 58 37.78125 53.203125 34 44.09375 34 
L 30 34 
z
" id="CMMI12-80"/>
     </defs>
     <g transform="translate(185.385385 227.564033)scale(0.12 -0.12)">
      <use transform="translate(0 14.943915)scale(0.996264)" xlink:href="#CMMI12-80"/>
      <use transform="translate(62.877232 0)scale(0.697382)" xlink:href="#CMR17-48"/>
     </g>
    </g>
    <g id="line2d_45">
     <path d="M 170.385385 240.088629 
L 179.385385 240.088629 
" style="fill:none;stroke:#ff7f0e;stroke-linecap:square;stroke-width:1.5;"/>
    </g>
    <g id="line2d_46"/>
    <g id="text_20">
     <!-- $P_1$ -->
     <g transform="translate(185.385385 244.288629)scale(0.12 -0.12)">
      <use transform="translate(0 14.943915)scale(0.996264)" xlink:href="#CMMI12-80"/>
      <use transform="translate(62.877232 0)scale(0.697382)" xlink:href="#CMR17-49"/>
     </g>
    </g>
    <g id="line2d_47">
     <path d="M 221.164835 223.364033 
L 230.164835 223.364033 
" style="fill:none;stroke:#2ca02c;stroke-linecap:square;stroke-width:1.5;"/>
    </g>
    <g id="line2d_48"/>
    <g id="text_21">
     <!-- $P_2$ -->
     <g transform="translate(236.164835 227.564033)scale(0.12 -0.12)">
      <use transform="translate(0 14.943915)scale(0.996264)" xlink:href="#CMMI12-80"/>
      <use transform="translate(62.877232 0)scale(0.697382)" xlink:href="#CMR17-50"/>
     </g>
    </g>
    <g id="line2d_49">
     <path d="M 221.164835 240.088629 
L 230.164835 240.088629 
" style="fill:none;stroke:#d62728;stroke-linecap:square;stroke-width:1.5;"/>
    </g>
    <g id="line2d_50"/>
    <g id="text_22">
     <!-- $P_3$ -->
     <defs>
      <path d="M 22.09375 34 
C 31 34 34.90625 26.140625 34.90625 17.09375 
C 34.90625 5.03125 28.5 0.390625 22.703125 0.390625 
C 17.40625 0.390625 8.796875 3.015625 6.09375 10.796875 
C 6.59375 10.59375 7.09375 10.59375 7.59375 10.59375 
C 10 10.59375 11.796875 12.1875 11.796875 14.796875 
C 11.796875 17.6875 9.59375 19 7.59375 19 
C 5.90625 19 3.296875 18.1875 3.296875 14.484375 
C 3.296875 5.234375 12.296875 -2 22.90625 -2 
C 34 -2 42.5 6.75 42.5 16.984375 
C 42.5 26.84375 34.5 34 25 35.09375 
C 32.59375 36.671875 39.90625 43.375 39.90625 52.390625 
C 39.90625 60.25 32 66 23 66 
C 13.90625 66 5.90625 60.34375 5.90625 52.296875 
C 5.90625 48.796875 8.5 48.1875 9.796875 48.1875 
C 11.90625 48.1875 13.703125 49.484375 13.703125 52.09375 
C 13.703125 54.6875 11.90625 56 9.796875 56 
C 9.40625 56 8.90625 56 8.5 55.796875 
C 11.40625 62.484375 19.296875 63.6875 22.796875 63.6875 
C 26.296875 63.6875 32.90625 61.96875 32.90625 52.296875 
C 32.90625 49.484375 32.5 44.546875 29.09375 40.21875 
C 26.09375 36.390625 22.703125 36.1875 19.40625 35.890625 
C 18.90625 35.890625 16.59375 35.6875 16.203125 35.6875 
C 15.5 35.59375 15.09375 35.5 15.09375 34.796875 
C 15.09375 34.09375 15.203125 34 17.203125 34 
z
" id="CMR17-51"/>
     </defs>
     <g transform="translate(236.164835 244.288629)scale(0.12 -0.12)">
      <use transform="translate(0 14.943915)scale(0.996264)" xlink:href="#CMMI12-80"/>
      <use transform="translate(62.877232 0)scale(0.697382)" xlink:href="#CMR17-51"/>
     </g>
    </g>
    <g id="line2d_51">
     <path d="M 271.944286 223.364033 
L 280.944286 223.364033 
" style="fill:none;stroke:#9467bd;stroke-linecap:square;stroke-width:1.5;"/>
    </g>
    <g id="line2d_52"/>
    <g id="text_23">
     <!-- $P_4$ -->
     <defs>
      <path d="M 33.59375 64.796875 
C 33.59375 66.890625 33.5 67 31.703125 67 
L 2 19.59375 
L 2 17 
L 27.796875 17 
L 27.796875 7.1875 
C 27.796875 3.59375 27.59375 2.59375 20.59375 2.59375 
L 18.703125 2.59375 
L 18.703125 0 
C 21.90625 0.1875 27.296875 0.1875 30.703125 0.1875 
C 34.09375 0.1875 39.5 0.1875 42.703125 0 
L 42.703125 2.59375 
L 40.796875 2.59375 
C 33.796875 2.59375 33.59375 3.59375 33.59375 7.1875 
L 33.59375 17 
L 43.796875 17 
L 43.796875 19.59375 
L 33.59375 19.59375 
z
M 28.09375 58.171875 
L 28.09375 19.59375 
L 4 19.59375 
z
" id="CMR17-52"/>
     </defs>
     <g transform="translate(286.944286 227.564033)scale(0.12 -0.12)">
      <use transform="translate(0 14.943915)scale(0.996264)" xlink:href="#CMMI12-80"/>
      <use transform="translate(62.877232 0)scale(0.697382)" xlink:href="#CMR17-52"/>
     </g>
    </g>
    <g id="line2d_53">
     <path d="M 271.944286 240.088629 
L 280.944286 240.088629 
" style="fill:none;stroke:#8c564b;stroke-linecap:square;stroke-width:1.5;"/>
    </g>
    <g id="line2d_54"/>
    <g id="text_24">
     <!-- $P_5$ -->
     <g transform="translate(286.944286 244.288629)scale(0.12 -0.12)">
      <use transform="translate(0 14.943915)scale(0.996264)" xlink:href="#CMMI12-80"/>
      <use transform="translate(62.877232 0)scale(0.697382)" xlink:href="#CMR17-53"/>
     </g>
    </g>
   </g>
  </g>
 </g>
 <defs>
  <clipPath id="p4cd8dec99e">
   <rect height="242.953842" width="368.970879" x="50.069121" y="14.459383"/>
  </clipPath>
 </defs>
</svg>
